<?xml version="1.0" standalone="no"?>
<!DOCTYPE svg PUBLIC "-//W3C//DTD SVG 20010904//EN"
 "http://www.w3.org/TR/2001/REC-SVG-20010904/DTD/svg10.dtd">
<svg version="1.0" xmlns="http://www.w3.org/2000/svg"
 width="279.000000pt" height="180.000000pt" viewBox="0 0 279.000000 180.000000"
 preserveAspectRatio="xMidYMid meet">

<g transform="translate(0.000000,180.000000) scale(0.100000,-0.100000)"
fill="#000000" stroke="none">
<path d="M23 1793 c15 -2 37 -2 50 0 12 2 0 4 -28 4 -27 0 -38 -2 -22 -4z"/>
<path d="M118 1793 c6 -2 18 -2 25 0 6 3 1 5 -13 5 -14 0 -19 -2 -12 -5z"/>
<path d="M178 1793 c12 -2 30 -2 40 0 9 3 -1 5 -23 4 -22 0 -30 -2 -17 -4z"/>
<path d="M278 1793 c18 -2 45 -2 60 0 15 2 0 4 -33 4 -33 0 -45 -2 -27 -4z"/>
<path d="M428 1793 c12 -2 32 -2 45 0 12 2 2 4 -23 4 -25 0 -35 -2 -22 -4z"/>
<path d="M553 1793 c26 -2 67 -2 90 0 23 2 2 3 -48 3 -49 0 -68 -1 -42 -3z"/>
<path d="M948 1793 c123 -2 321 -2 440 0 119 1 19 2 -223 2 -242 0 -340 -1
-217 -2z"/>
<path d="M1917 1793 c161 -2 425 -2 585 0 161 1 30 2 -292 2 -322 0 -453 -1
-293 -2z"/>
<path d="M523 1365 c0 -27 2 -38 4 -22 2 15 10 27 18 27 8 0 16 -12 18 -27 l4
-28 2 28 c1 21 -4 30 -18 34 -11 3 -22 12 -24 22 -3 9 -5 -6 -4 -34z"/>
<path d="M1110 1396 c0 -7 -9 -16 -21 -19 -29 -8 -22 -51 9 -55 20 -3 22 1 22
42 0 25 -2 46 -5 46 -3 0 -5 -6 -5 -14z m0 -46 c0 -11 -7 -20 -15 -20 -8 0
-15 9 -15 20 0 11 7 20 15 20 8 0 15 -9 15 -20z"/>
<path d="M116 1370 c3 -19 10 -39 15 -44 13 -14 10 2 -7 44 l-14 35 6 -35z"/>
<path d="M145 1381 c-4 -13 -4 -25 -1 -28 3 -4 6 2 7 13 0 18 1 18 9 -1 6 -13
9 -15 9 -5 0 8 -3 21 -8 29 -7 11 -10 9 -16 -8z"/>
<path d="M186 1376 c-3 -13 -9 -32 -12 -43 -5 -12 -4 -15 3 -8 11 10 28 75 20
75 -3 0 -8 -11 -11 -24z"/>
<path d="M294 1385 c2 -11 8 -31 12 -45 l7 -25 13 30 c7 17 13 37 13 45 0 8
-7 -1 -14 -20 -9 -24 -14 -29 -14 -15 -1 11 -6 27 -12 35 -8 12 -9 11 -5 -5z"/>
<path d="M351 1358 l2 -43 7 35 c4 19 8 31 9 25 1 -5 10 -21 21 -35 l20 -25
-1 45 c-1 40 -2 42 -8 15 l-8 -30 -13 28 c-19 39 -30 33 -29 -15z"/>
<path d="M432 1388 c-25 -25 -6 -68 30 -68 10 0 18 4 18 8 0 5 -10 8 -22 8
-18 -1 -23 5 -23 24 0 19 5 25 23 24 12 0 22 3 22 8 0 12 -34 10 -48 -4z"/>
<path d="M212 1350 c0 -19 2 -27 5 -17 2 9 2 25 0 35 -3 9 -5 1 -5 -18z"/>
<path d="M231 1348 c2 -30 2 -31 6 -5 5 34 30 36 36 2 4 -23 4 -23 3 2 -1 21
-7 29 -23 31 -20 3 -23 -1 -22 -30z"/>
<path d="M604 1372 c19 -8 19 -9 -2 -14 -31 -9 -29 -38 4 -38 22 0 25 4 22 27
-2 19 -9 29 -23 30 -19 3 -19 3 -1 -5z m16 -32 c0 -5 -7 -10 -15 -10 -8 0 -15
5 -15 10 0 6 7 10 15 10 8 0 15 -4 15 -10z"/>
<path d="M644 1369 c-4 -7 1 -16 12 -22 17 -10 17 -11 -1 -18 -19 -7 -18 -8 3
-8 26 -1 29 16 5 36 -17 14 -17 14 0 9 9 -3 17 -1 17 4 0 14 -27 12 -36 -1z"/>
<path d="M721 1348 c2 -28 2 -29 6 -8 3 14 10 28 17 32 7 5 5 8 -6 8 -14 0
-18 -8 -17 -32z"/>
<path d="M764 1366 c-10 -25 3 -46 28 -45 l23 2 -22 4 c-29 6 -30 23 -2 23 12
0 19 5 17 13 -7 18 -37 21 -44 3z m33 -2 c-3 -3 -12 -4 -19 -1 -8 3 -5 6 6 6
11 1 17 -2 13 -5z"/>
<path d="M824 1365 c-9 -23 3 -45 23 -44 17 1 17 2 1 6 -10 2 -18 13 -18 23 0
10 8 21 18 23 16 4 16 5 -1 6 -10 0 -20 -6 -23 -14z"/>
<path d="M874 1366 c-10 -25 3 -46 28 -45 l23 2 -22 4 c-29 6 -30 23 -2 23 12
0 19 5 17 13 -7 18 -37 21 -44 3z m33 -2 c-3 -3 -12 -4 -19 -1 -8 3 -5 6 6 6
11 1 17 -2 13 -5z"/>
<path d="M932 1350 c0 -19 2 -27 5 -17 2 9 2 25 0 35 -3 9 -5 1 -5 -18z"/>
<path d="M951 1375 c0 -5 6 -21 14 -35 l13 -25 12 29 c6 16 9 31 6 33 -2 3 -7
-6 -11 -18 l-7 -22 -14 24 c-7 13 -13 20 -13 14z"/>
<path d="M1014 1366 c-10 -25 3 -46 28 -45 l23 2 -22 4 c-29 6 -30 23 -2 23
12 0 19 5 17 13 -7 18 -37 21 -44 3z m33 -2 c-3 -3 -12 -4 -19 -1 -8 3 -5 6 6
6 11 1 17 -2 13 -5z"/>
<path d="M1184 1372 c19 -8 19 -9 -2 -14 -31 -9 -29 -38 4 -38 22 0 25 4 22
27 -2 19 -9 29 -23 30 -19 3 -19 3 -1 -5z m16 -32 c0 -5 -7 -10 -15 -10 -8 0
-15 5 -15 10 0 6 7 10 15 10 8 0 15 -4 15 -10z"/>
<path d="M1221 1348 c2 -30 2 -31 6 -5 5 34 30 36 36 2 4 -23 4 -23 3 2 -1 21
-7 29 -23 31 -20 3 -23 -1 -22 -30z"/>
<path d="M1312 1350 c0 -19 2 -27 5 -17 2 9 2 25 0 35 -3 9 -5 1 -5 -18z"/>
<path d="M1331 1348 c2 -30 2 -31 6 -5 5 34 30 36 36 2 4 -23 4 -23 3 2 -1 21
-7 29 -23 31 -20 3 -23 -1 -22 -30z"/>
<path d="M1394 1365 c-9 -23 3 -45 23 -44 17 1 17 2 1 6 -10 2 -18 13 -18 23
0 10 8 21 18 23 16 4 16 5 -1 6 -10 0 -20 -6 -23 -14z"/>
<path d="M1444 1366 c-9 -24 4 -48 23 -44 24 4 24 52 0 56 -9 2 -20 -4 -23
-12z m36 -16 c0 -11 -7 -20 -15 -20 -8 0 -15 9 -15 20 0 11 7 20 15 20 8 0 15
-9 15 -20z"/>
<path d="M1501 1347 c2 -30 2 -30 6 -4 2 15 8 27 13 27 5 0 11 -12 13 -27 l4
-28 2 28 c1 34 18 36 24 2 4 -23 4 -23 3 2 -1 24 -6 28 -33 30 -31 3 -33 1
-32 -30z"/>
<path d="M1582 1350 c0 -19 2 -27 5 -17 2 9 2 25 0 35 -3 9 -5 1 -5 -18z"/>
<path d="M1601 1348 c2 -30 2 -31 6 -5 5 34 30 36 36 2 4 -23 4 -23 3 2 -1 21
-7 29 -23 31 -20 3 -23 -1 -22 -30z"/>
<path d="M1667 1373 c-15 -15 -6 -45 16 -51 22 -6 22 -6 -3 -13 l-25 -8 25 2
c21 2 25 8 28 40 3 31 0 37 -16 37 -10 0 -22 -3 -25 -7z m33 -23 c0 -11 -7
-20 -15 -20 -8 0 -15 9 -15 20 0 11 7 20 15 20 8 0 15 -9 15 -20z"/>
<path d="M672 1263 c-5 -10 -5 -31 -1 -48 l7 -30 1 28 c0 15 6 27 11 27 6 0
11 -12 11 -27 2 -28 2 -28 6 -3 3 14 10 28 17 32 6 4 -1 8 -16 8 -29 0 -38 14
-15 23 9 4 9 6 0 6 -7 1 -16 -7 -21 -16z"/>
<path d="M459 1261 c-10 -30 3 -71 22 -71 14 0 19 7 19 30 0 19 -5 30 -14 30
-8 0 -16 6 -18 13 -4 9 -6 8 -9 -2z m31 -41 c0 -11 -4 -20 -10 -20 -5 0 -10 9
-10 20 0 11 5 20 10 20 6 0 10 -9 10 -20z"/>
<path d="M114 1235 c-9 -23 3 -45 23 -44 17 1 17 2 1 6 -10 2 -18 13 -18 23 0
10 8 21 18 23 16 4 16 5 -1 6 -10 0 -20 -6 -23 -14z"/>
<path d="M164 1236 c-9 -24 4 -48 23 -44 24 4 24 52 0 56 -9 2 -20 -4 -23 -12z
m36 -16 c0 -11 -7 -20 -15 -20 -8 0 -15 9 -15 20 0 11 7 20 15 20 8 0 15 -9
15 -20z"/>
<path d="M221 1218 c2 -30 2 -31 6 -5 5 34 30 36 36 2 4 -23 4 -23 3 2 -1 21
-7 29 -23 31 -20 3 -23 -1 -22 -30z"/>
<path d="M281 1218 c2 -30 2 -31 6 -5 5 34 30 36 36 2 4 -23 4 -23 3 2 -1 21
-7 29 -23 31 -20 3 -23 -1 -22 -30z"/>
<path d="M344 1236 c-10 -25 3 -46 28 -45 l23 2 -22 4 c-29 6 -30 23 -2 23 12
0 19 5 17 13 -7 18 -37 21 -44 3z m33 -2 c-3 -3 -12 -4 -19 -1 -8 3 -5 6 6 6
11 1 17 -2 13 -5z"/>
<path d="M404 1235 c-9 -23 3 -45 23 -44 17 1 17 2 1 6 -10 2 -18 13 -18 23 0
10 8 21 18 23 16 4 16 5 -1 6 -10 0 -20 -6 -23 -14z"/>
<path d="M514 1236 c-9 -24 4 -48 23 -44 12 2 18 12 18 28 0 29 -32 41 -41 16z
m36 -16 c0 -11 -7 -20 -15 -20 -8 0 -15 9 -15 20 0 11 7 20 15 20 8 0 15 -9
15 -20z"/>
<path d="M571 1218 c2 -30 2 -31 6 -5 5 34 30 36 36 2 4 -23 4 -23 3 2 -1 21
-7 29 -23 31 -20 3 -23 -1 -22 -30z"/>
<path d="M744 1236 c-9 -24 4 -48 23 -44 12 2 18 12 18 28 0 29 -32 41 -41 16z
m36 -16 c0 -11 -7 -20 -15 -20 -8 0 -15 9 -15 20 0 11 7 20 15 20 8 0 15 -9
15 -20z"/>
<path d="M801 1217 c2 -30 2 -30 6 -4 2 15 8 27 13 27 5 0 11 -12 13 -27 l4
-28 2 28 c1 34 18 36 24 2 4 -23 4 -23 3 2 -1 24 -6 28 -33 30 -31 3 -33 1
-32 -30z"/>
<path d="M1099 738 c-6 -21 -1 -78 6 -78 6 0 9 17 7 40 -3 33 -9 50 -13 38z"/>
<path d="M1134 726 c-11 -28 0 -61 21 -61 16 0 20 7 20 35 0 25 -5 36 -18 38
-9 2 -20 -3 -23 -12z m36 -26 c0 -20 -5 -30 -15 -30 -10 0 -15 10 -15 30 0 20
5 30 15 30 10 0 15 -10 15 -30z"/>
<path d="M1237 733 c-2 -4 -4 -21 -3 -38 1 -23 6 -30 21 -30 16 0 20 7 20 35
0 24 -5 36 -17 38 -9 2 -18 -1 -21 -5z m33 -13 c0 -5 -7 -10 -15 -10 -8 0 -15
5 -15 10 0 6 7 10 15 10 8 0 15 -4 15 -10z m-2 -38 c2 -7 -3 -12 -12 -12 -9 0
-16 7 -16 16 0 17 22 14 28 -4z"/>
<path d="M1346 715 c-16 -24 -16 -25 4 -25 12 0 20 -7 21 -17 0 -14 2 -13 9 4
7 16 14 20 31 16 21 -6 21 -7 3 -20 -19 -14 -18 -15 1 -11 15 2 20 11 20 38 0
43 -30 55 -44 18 l-10 -23 0 23 c-1 29 -15 28 -35 -3z m84 0 c0 -8 -7 -15 -15
-15 -8 0 -15 7 -15 15 0 8 7 15 15 15 8 0 15 -7 15 -15z m-60 -5 c0 -5 -5 -10
-11 -10 -5 0 -7 5 -4 10 3 6 8 10 11 10 2 0 4 -4 4 -10z"/>
<path d="M1519 738 c-6 -21 -1 -78 6 -78 6 0 9 17 7 40 -3 33 -9 50 -13 38z"/>
<path d="M1579 738 c-6 -21 -1 -78 6 -78 6 0 9 17 7 40 -3 33 -9 50 -13 38z"/>
<path d="M1633 733 c21 -6 22 -26 2 -43 -23 -19 -18 -30 13 -29 26 1 26 1 3 8
-21 6 -22 8 -7 20 24 20 21 51 -6 50 -17 -1 -19 -2 -5 -6z"/>
<path d="M753 485 c0 -27 2 -38 4 -22 2 15 10 27 18 27 8 0 16 -12 18 -27 l4
-28 2 28 c1 21 -4 30 -18 34 -11 3 -22 12 -24 22 -3 9 -5 -6 -4 -34z"/>
<path d="M1841 518 c-1 -20 -21 -25 -21 -5 0 9 -2 9 -8 -1 -5 -7 -7 -26 -4
-42 6 -39 42 -43 42 -5 0 34 28 32 33 -2 l4 -28 2 28 c1 21 -4 30 -18 34 -11
3 -22 12 -24 22 -4 14 -5 14 -6 -1z m-1 -48 c0 -11 -4 -20 -10 -20 -5 0 -10 9
-10 20 0 11 5 20 10 20 6 0 10 -9 10 -20z"/>
<path d="M230 480 c0 -37 2 -41 21 -38 12 2 27 11 33 21 14 22 -3 51 -33 55
-19 3 -21 -1 -21 -38z m45 0 c0 -16 -6 -26 -17 -28 -14 -3 -18 3 -18 28 0 25
4 31 18 28 11 -2 17 -12 17 -28z"/>
<path d="M848 510 c-2 -7 -2 -26 0 -41 4 -25 8 -28 41 -26 31 2 36 5 36 27 0
21 -5 25 -28 26 -16 1 -33 7 -37 14 -6 10 -8 10 -12 0z m32 -40 c0 -11 -4 -20
-10 -20 -5 0 -10 9 -10 20 0 11 5 20 10 20 6 0 10 -9 10 -20z m40 0 c0 -11 -7
-20 -15 -20 -8 0 -15 9 -15 20 0 11 7 20 15 20 8 0 15 -9 15 -20z"/>
<path d="M982 483 c-6 -20 -9 -39 -7 -42 3 -2 5 1 5 7 0 7 9 12 20 12 11 0 20
-5 20 -12 0 -6 3 -9 6 -5 8 7 -15 77 -25 77 -4 0 -13 -17 -19 -37z m28 -3 c0
-5 -4 -10 -10 -10 -5 0 -10 5 -10 10 0 6 5 10 10 10 6 0 10 -4 10 -10z"/>
<path d="M1268 508 c-9 -25 5 -68 21 -67 10 0 11 2 4 6 -15 5 -17 40 -4 45 5
2 3 8 -4 15 -10 9 -15 9 -17 1z"/>
<path d="M1461 478 c1 -24 3 -35 6 -25 2 9 7 17 10 17 4 0 15 -8 26 -17 14
-13 18 -13 11 -3 -5 8 -9 26 -9 40 0 18 -6 26 -22 28 -21 3 -23 0 -22 -40z
m39 17 c0 -8 -7 -15 -15 -15 -8 0 -15 7 -15 15 0 8 7 15 15 15 8 0 15 -7 15
-15z"/>
<path d="M1738 508 c-9 -25 5 -68 21 -67 10 0 11 2 4 6 -15 5 -17 40 -4 45 5
2 3 8 -4 15 -10 9 -15 9 -17 1z"/>
<path d="M2339 511 c-10 -30 3 -71 22 -71 14 0 19 7 19 30 0 19 -5 30 -14 30
-8 0 -16 6 -18 13 -4 9 -6 8 -9 -2z m31 -41 c0 -11 -4 -20 -10 -20 -5 0 -10 9
-10 20 0 11 5 20 10 20 6 0 10 -9 10 -20z"/>
<path d="M2530 510 c12 -7 12 -12 2 -22 -17 -17 -15 -33 3 -18 21 17 19 50 -2
50 -15 0 -16 -2 -3 -10z"/>
<path d="M304 486 c-9 -24 4 -48 23 -44 12 2 18 12 18 28 0 29 -32 41 -41 16z
m36 -16 c0 -11 -7 -20 -15 -20 -8 0 -15 9 -15 20 0 11 7 20 15 20 8 0 15 -9
15 -20z"/>
<path d="M400 474 c6 -15 9 -33 6 -41 -12 -30 6 -10 20 22 18 44 18 58 -1 25
-10 -18 -14 -20 -15 -8 0 9 -4 20 -10 23 -6 4 -6 -4 0 -21z"/>
<path d="M454 486 c-9 -24 4 -48 23 -44 12 2 18 12 18 28 0 29 -32 41 -41 16z
m36 -16 c0 -11 -7 -20 -15 -20 -8 0 -15 9 -15 20 0 11 7 20 15 20 8 0 15 -9
15 -20z"/>
<path d="M514 470 c1 -18 7 -26 24 -28 19 -3 22 1 21 30 -2 30 -2 31 -6 6 -5
-34 -30 -37 -36 -5 -3 19 -4 19 -3 -3z"/>
<path d="M601 484 c0 -11 3 -14 6 -6 3 7 2 16 -1 19 -3 4 -6 -2 -5 -13z"/>
<path d="M621 474 c-6 -15 -9 -29 -6 -32 3 -4 9 4 12 17 l6 23 13 -23 c7 -13
13 -19 13 -14 0 6 -5 20 -12 33 l-13 23 -13 -27z"/>
<path d="M661 484 c0 -11 3 -14 6 -6 3 7 2 16 -1 19 -3 4 -6 -2 -5 -13z"/>
<path d="M682 470 c0 -19 2 -27 5 -17 2 9 2 25 0 35 -3 9 -5 1 -5 -18z"/>
<path d="M704 489 c-4 -7 1 -16 12 -22 17 -10 17 -11 -1 -18 -19 -7 -18 -8 3
-8 26 -1 29 16 5 36 -17 14 -17 14 0 9 9 -3 17 -1 17 4 0 14 -27 12 -36 -1z"/>
<path d="M1044 485 c-9 -23 3 -45 23 -44 17 1 17 2 1 6 -10 2 -18 13 -18 23 0
10 8 21 18 23 16 4 16 5 -1 6 -10 0 -20 -6 -23 -14z"/>
<path d="M1094 485 c-9 -23 3 -45 23 -44 17 1 17 2 1 6 -10 2 -18 13 -18 23 0
10 8 21 18 23 16 4 16 5 -1 6 -10 0 -20 -6 -23 -14z"/>
<path d="M1144 486 c-10 -25 3 -46 28 -45 l23 2 -22 4 c-29 6 -30 23 -2 23 12
0 19 5 17 13 -7 18 -37 21 -44 3z m33 -2 c-3 -3 -12 -4 -19 -1 -8 3 -5 6 6 6
11 1 17 -2 13 -5z"/>
<path d="M1200 458 c0 -24 4 -38 8 -32 4 6 15 13 25 17 26 10 18 51 -10 55
-21 3 -23 -1 -23 -40z m40 12 c0 -11 -7 -20 -15 -20 -8 0 -15 9 -15 20 0 11 7
20 15 20 8 0 15 -9 15 -20z"/>
<path d="M1334 486 c-9 -24 4 -48 23 -44 24 4 24 52 0 56 -9 2 -20 -4 -23 -12z
m36 -16 c0 -11 -7 -20 -15 -20 -8 0 -15 9 -15 20 0 11 7 20 15 20 8 0 15 -9
15 -20z"/>
<path d="M1391 468 c2 -28 2 -29 6 -8 3 14 10 28 17 32 7 5 5 8 -6 8 -14 0
-18 -8 -17 -32z"/>
<path d="M1534 486 c-10 -25 3 -46 28 -45 l23 2 -22 4 c-29 6 -30 23 -2 23 12
0 19 5 17 13 -7 18 -37 21 -44 3z m33 -2 c-3 -3 -12 -4 -19 -1 -8 3 -5 6 6 6
11 1 17 -2 13 -5z"/>
<path d="M1598 469 c3 -20 -1 -35 -9 -41 -12 -8 -11 -9 1 -5 16 4 28 77 12 77
-5 0 -6 -14 -4 -31z"/>
<path d="M1624 486 c-10 -25 3 -46 28 -45 l23 2 -22 4 c-29 6 -30 23 -2 23 12
0 19 5 17 13 -7 18 -37 21 -44 3z m33 -2 c-3 -3 -12 -4 -19 -1 -8 3 -5 6 6 6
11 1 17 -2 13 -5z"/>
<path d="M1684 485 c-9 -23 3 -45 23 -44 17 1 17 2 1 6 -10 2 -18 13 -18 23 0
10 8 21 18 23 16 4 16 5 -1 6 -10 0 -20 -6 -23 -14z"/>
<path d="M1904 486 c-10 -25 3 -46 28 -45 l23 2 -22 4 c-29 6 -30 23 -2 23 12
0 19 5 17 13 -7 18 -37 21 -44 3z m33 -2 c-3 -3 -12 -4 -19 -1 -8 3 -5 6 6 6
11 1 17 -2 13 -5z"/>
<path d="M1994 485 c-9 -23 3 -45 23 -44 17 1 17 2 1 6 -10 2 -18 13 -18 23 0
10 8 21 18 23 16 4 16 5 -1 6 -10 0 -20 -6 -23 -14z"/>
<path d="M2044 486 c-9 -24 4 -48 23 -44 24 4 24 52 0 56 -9 2 -20 -4 -23 -12z
m36 -16 c0 -11 -7 -20 -15 -20 -8 0 -15 9 -15 20 0 11 7 20 15 20 8 0 15 -9
15 -20z"/>
<path d="M2101 468 c2 -30 2 -31 6 -5 5 34 30 36 36 2 4 -23 4 -23 3 2 -1 21
-7 29 -23 31 -20 3 -23 -1 -22 -30z"/>
<path d="M2161 468 c2 -30 2 -31 6 -5 5 34 30 36 36 2 4 -23 4 -23 3 2 -1 21
-7 29 -23 31 -20 3 -23 -1 -22 -30z"/>
<path d="M2224 486 c-10 -25 3 -46 28 -45 l23 2 -22 4 c-29 6 -30 23 -2 23 12
0 19 5 17 13 -7 18 -37 21 -44 3z m33 -2 c-3 -3 -12 -4 -19 -1 -8 3 -5 6 6 6
11 1 17 -2 13 -5z"/>
<path d="M2284 485 c-9 -23 3 -45 23 -44 17 1 17 2 1 6 -10 2 -18 13 -18 23 0
10 8 21 18 23 16 4 16 5 -1 6 -10 0 -20 -6 -23 -14z"/>
<path d="M2394 486 c-9 -24 4 -48 23 -44 24 4 24 52 0 56 -9 2 -20 -4 -23 -12z
m36 -16 c0 -11 -7 -20 -15 -20 -8 0 -15 9 -15 20 0 11 7 20 15 20 8 0 15 -9
15 -20z"/>
<path d="M2451 468 c2 -30 2 -31 6 -5 5 34 30 36 36 2 4 -23 4 -23 3 2 -1 21
-7 29 -23 31 -20 3 -23 -1 -22 -30z"/>
<path d="M120 225 l0 -105 390 0 390 0 0 105 0 105 -390 0 -390 0 0 -105z
m755 0 l0 -80 -365 0 -365 0 0 80 0 80 365 0 365 0 0 -80z"/>
<path d="M352 223 c-6 -20 -9 -39 -7 -42 3 -2 5 1 5 7 0 7 9 12 20 12 11 0 20
-5 20 -12 0 -6 3 -9 6 -5 8 7 -15 77 -25 77 -4 0 -13 -17 -19 -37z m28 -3 c0
-5 -4 -10 -10 -10 -5 0 -10 5 -10 10 0 6 5 10 10 10 6 0 10 -4 10 -10z"/>
<path d="M638 248 c-9 -25 5 -68 21 -67 10 0 11 2 4 6 -15 5 -17 40 -4 45 5 2
3 8 -4 15 -10 9 -15 9 -17 1z"/>
<path d="M414 225 c-9 -23 3 -45 23 -44 17 1 17 2 1 6 -10 2 -18 13 -18 23 0
10 8 21 18 23 16 4 16 5 -1 6 -10 0 -20 -6 -23 -14z"/>
<path d="M464 225 c-9 -23 3 -45 23 -44 17 1 17 2 1 6 -10 2 -18 13 -18 23 0
10 8 21 18 23 16 4 16 5 -1 6 -10 0 -20 -6 -23 -14z"/>
<path d="M514 226 c-10 -25 3 -46 28 -45 l23 2 -22 4 c-29 6 -30 23 -2 23 12
0 19 5 17 13 -7 18 -37 21 -44 3z m33 -2 c-3 -3 -12 -4 -19 -1 -8 3 -5 6 6 6
11 1 17 -2 13 -5z"/>
<path d="M570 198 c0 -24 4 -38 8 -32 4 6 15 13 25 17 26 10 18 51 -10 55 -21
3 -23 -1 -23 -40z m40 12 c0 -11 -7 -20 -15 -20 -8 0 -15 9 -15 20 0 11 7 20
15 20 8 0 15 -9 15 -20z"/>
<path d="M358 163 c12 -2 30 -2 40 0 9 3 -1 5 -23 4 -22 0 -30 -2 -17 -4z"/>
<path d="M1062 223 c-6 -20 -9 -39 -7 -42 3 -2 5 1 5 7 0 7 9 12 20 12 11 0
20 -5 20 -12 0 -6 3 -9 6 -5 8 7 -15 77 -25 77 -4 0 -13 -17 -19 -37z m28 -3
c0 -5 -4 -10 -10 -10 -5 0 -10 5 -10 10 0 6 5 10 10 10 6 0 10 -4 10 -10z"/>
<path d="M1188 250 c-2 -7 -2 -26 0 -41 4 -25 8 -28 41 -26 31 2 36 5 36 27 0
21 -5 25 -28 26 -16 1 -33 7 -37 14 -6 10 -8 10 -12 0z m32 -40 c0 -11 -4 -20
-10 -20 -5 0 -10 9 -10 20 0 11 5 20 10 20 6 0 10 -9 10 -20z m40 0 c0 -11 -7
-20 -15 -20 -8 0 -15 9 -15 20 0 11 7 20 15 20 8 0 15 -9 15 -20z"/>
<path d="M1292 223 c-6 -20 -9 -39 -7 -42 3 -2 5 1 5 7 0 7 9 12 20 12 11 0
20 -5 20 -12 0 -6 3 -9 6 -5 8 7 -15 77 -25 77 -4 0 -13 -17 -19 -37z m28 -3
c0 -5 -4 -10 -10 -10 -5 0 -10 5 -10 10 0 6 5 10 10 10 6 0 10 -4 10 -10z"/>
<path d="M1578 248 c-9 -25 5 -68 21 -67 10 0 11 2 4 6 -15 5 -17 40 -4 45 5
2 3 8 -4 15 -10 9 -15 9 -17 1z"/>
<path d="M1703 253 c20 -5 22 -19 5 -26 -10 -4 -10 -6 0 -6 6 -1 12 -7 12 -15
0 -8 -6 -16 -12 -19 -8 -2 -7 -3 2 -3 10 1 16 14 17 39 2 32 -1 37 -20 36 -17
-1 -18 -2 -4 -6z"/>
<path d="M1763 253 c20 -5 22 -19 5 -26 -10 -4 -10 -6 0 -6 6 -1 12 -7 12 -15
0 -8 -6 -16 -12 -19 -8 -2 -7 -3 2 -3 10 1 16 14 17 39 2 32 -1 37 -20 36 -17
-1 -18 -2 -4 -6z"/>
<path d="M2161 218 c1 -24 3 -35 6 -25 2 9 7 17 10 17 4 0 15 -8 26 -17 14
-13 18 -13 11 -3 -5 8 -9 26 -9 40 0 18 -6 26 -22 28 -21 3 -23 0 -22 -40z
m39 17 c0 -8 -7 -15 -15 -15 -8 0 -15 7 -15 15 0 8 7 15 15 15 8 0 15 -7 15
-15z"/>
<path d="M2438 248 c-9 -25 5 -68 21 -67 10 0 11 2 4 6 -15 5 -17 40 -4 45 5
2 3 8 -4 15 -10 9 -15 9 -17 1z"/>
<path d="M1124 210 c1 -18 7 -26 24 -28 19 -3 22 1 21 30 -2 30 -2 31 -6 6 -5
-34 -30 -37 -36 -5 -3 19 -4 19 -3 -3z"/>
<path d="M1354 225 c-9 -23 3 -45 23 -44 17 1 17 2 1 6 -10 2 -18 13 -18 23 0
10 8 21 18 23 16 4 16 5 -1 6 -10 0 -20 -6 -23 -14z"/>
<path d="M1404 225 c-9 -23 3 -45 23 -44 17 1 17 2 1 6 -10 2 -18 13 -18 23 0
10 8 21 18 23 16 4 16 5 -1 6 -10 0 -20 -6 -23 -14z"/>
<path d="M1454 226 c-10 -25 3 -46 28 -45 l23 2 -22 4 c-29 6 -30 23 -2 23 12
0 19 5 17 13 -7 18 -37 21 -44 3z m33 -2 c-3 -3 -12 -4 -19 -1 -8 3 -5 6 6 6
11 1 17 -2 13 -5z"/>
<path d="M1510 198 c0 -24 4 -38 8 -32 4 6 15 13 25 17 26 10 18 51 -10 55
-21 3 -23 -1 -23 -40z m40 12 c0 -11 -7 -20 -15 -20 -8 0 -15 9 -15 20 0 11 7
20 15 20 8 0 15 -9 15 -20z"/>
<path d="M2234 226 c-10 -25 3 -46 28 -45 l23 2 -22 4 c-29 6 -30 23 -2 23 12
0 19 5 17 13 -7 18 -37 21 -44 3z m33 -2 c-3 -3 -12 -4 -19 -1 -8 3 -5 6 6 6
11 1 17 -2 13 -5z"/>
<path d="M2298 209 c3 -20 -1 -35 -9 -41 -12 -8 -11 -9 1 -5 16 4 28 77 12 77
-5 0 -6 -14 -4 -31z"/>
<path d="M2324 226 c-10 -25 3 -46 28 -45 l23 2 -22 4 c-29 6 -30 23 -2 23 12
0 19 5 17 13 -7 18 -37 21 -44 3z m33 -2 c-3 -3 -12 -4 -19 -1 -8 3 -5 6 6 6
11 1 17 -2 13 -5z"/>
<path d="M2384 225 c-9 -23 3 -45 23 -44 17 1 17 2 1 6 -10 2 -18 13 -18 23 0
10 8 21 18 23 16 4 16 5 -1 6 -10 0 -20 -6 -23 -14z"/>
<path d="M2178 163 c12 -2 30 -2 40 0 9 3 -1 5 -23 4 -22 0 -30 -2 -17 -4z"/>
</g>
</svg>
